<svg width="160" height="163" viewBox="0 0 160 163" fill="none" xmlns="http://www.w3.org/2000/svg">
<circle cx="80" cy="80" r="78" fill="white" stroke="#842D2C" stroke-width="4"/>
<path d="M114.62 93.2C114.886 93.8667 115.02 94.5333 115.02 95.2C115.02 95.7333 115.153 96.3333 115.42 97C115.953 98.0667 116.353 99.2 116.62 100.4C116.886 101.6 117.353 102.733 118.02 103.8C118.553 104.867 118.886 105.933 119.02 107C119.286 108.067 119.753 109.067 120.42 110C120.553 110.267 120.62 110.467 120.62 110.6C120.753 110.6 120.886 110.733 121.02 111C121.286 111.8 121.486 112.6 121.62 113.4C121.753 114.067 121.953 114.8 122.22 115.6C122.486 116.267 122.753 116.867 123.02 117.4C123.42 117.933 123.686 118.6 123.82 119.4C123.553 119.4 123.353 119.467 123.22 119.6C123.086 119.733 122.953 119.8 122.82 119.8H113.42C112.22 119.8 111.153 119.6 110.22 119.2C110.086 119.2 109.553 119.333 108.62 119.6C108.22 119.467 107.486 119.267 106.42 119C105.753 119 105.286 119.267 105.02 119.8C104.753 120.2 104.286 120.333 103.62 120.2C103.353 119.533 103.153 118.867 103.02 118.2C103.02 117.533 102.886 116.867 102.62 116.2C102.353 115.533 102.086 114.933 101.82 114.4C101.686 113.733 101.486 113.067 101.22 112.4L97.6195 101C96.8195 100.2 96.0195 99.8 95.2195 99.8C94.1529 100.067 93.1529 100.467 92.2195 101C91.4195 101.533 90.5529 102 89.6195 102.4C89.2195 102.933 88.7529 103.733 88.2195 104.8C88.0862 104.933 87.9529 105.067 87.8195 105.2C87.6862 105.2 87.5529 105.267 87.4195 105.4C87.2862 105.533 87.1529 105.6 87.0195 105.6C86.6195 105.067 86.3529 104.533 86.2195 104C86.0862 103.467 85.8862 102.867 85.6195 102.2C84.8195 100.6 83.6195 99.4 82.0195 98.6C81.7529 98.4667 81.4195 98.3333 81.0195 98.2C80.7529 98.0667 80.4862 97.9333 80.2195 97.8H75.0195C73.6862 98.3333 72.5529 99.4 71.6195 101C71.3529 101.667 71.1529 102.267 71.0195 102.8C70.8862 103.333 70.6862 103.933 70.4195 104.6C69.8862 105.533 69.6195 106.667 69.6195 108C69.6195 108.533 69.4862 109.2 69.2195 110C69.0862 110.267 68.9529 110.533 68.8195 110.8C68.8195 111.067 68.7529 111.333 68.6195 111.6V119.4C68.3529 119.8 68.1529 120.2 68.0195 120.6C68.0195 121 67.8862 121.467 67.6195 122V133.2C67.8862 134 68.1529 134.733 68.4195 135.4C68.6862 136.067 68.6862 136.733 68.4195 137.4C68.4195 137.933 67.9529 138.6 67.0195 139.4C66.3529 139.267 65.8195 138.733 65.4195 137.8V130.4C65.6862 130.133 65.8195 129.733 65.8195 129.2C65.9529 128.8 66.1529 128.4 66.4195 128V113.6C66.1529 113.2 65.9529 112.8 65.8195 112.4C65.8195 112 65.7529 111.667 65.6195 111.4C65.3529 110.067 65.2862 108.8 65.4195 107.6C65.5529 106.267 65.4862 104.933 65.2195 103.6C64.4195 102.667 63.8862 102.2 63.6195 102.2C63.3529 102.067 62.7529 102.133 61.8195 102.4C61.5529 102.4 61.4195 102.533 61.4195 102.8C61.2862 103.6 61.1529 104.4 61.0195 105.2C60.8862 105.867 60.6195 106.533 60.2195 107.2C60.0862 107.467 60.0195 107.733 60.0195 108C60.0195 108.267 59.9529 108.533 59.8195 108.8C59.1529 109.867 58.6862 111 58.4195 112.2C58.1529 113.4 57.6862 114.533 57.0195 115.6C56.6195 116.4 56.1529 117.2 55.6195 118C55.0862 118.533 54.6195 118.667 54.2195 118.4C53.8195 118.133 53.3529 117.933 52.8195 117.8C52.5529 117.933 52.2195 118.067 51.8195 118.2C51.4195 118.333 50.9529 118.533 50.4195 118.8C48.2862 118.8 46.1529 118.8 44.0195 118.8C41.8862 118.8 39.7529 118.733 37.6195 118.6C37.3529 117.8 37.2195 117.4 37.2195 117.4C37.4862 116.467 37.8195 115.6 38.2195 114.8C38.6195 113.867 38.9529 112.933 39.2195 112C39.2195 111.467 39.3529 110.933 39.6195 110.4C40.2862 109.333 40.7529 108.267 41.0195 107.2C41.2862 106.133 41.6862 105.067 42.2195 104V100.6C41.8195 100.067 41.4195 99.6 41.0195 99.2C40.7529 98.8 40.4862 98.4 40.2195 98C40.0862 96.5333 40.0195 95.2 40.0195 94C40.1529 92.6667 40.2195 91.4 40.2195 90.2C40.4862 89.9333 40.6862 89.7333 40.8195 89.6C40.9529 89.3333 41.0862 89.0667 41.2195 88.8C41.7529 88.5333 42.2195 88.3333 42.6195 88.2C43.1529 87.9333 43.6195 87.6667 44.0195 87.4C44.5529 87.2667 45.0195 87.2 45.4195 87.2C45.8195 87.2 46.2195 87.1333 46.6195 87C47.5529 86.7333 48.0862 86.3333 48.2195 85.8C48.8862 84.6 49.5529 83.4667 50.2195 82.4C51.0195 81.3333 51.6862 80.2 52.2195 79C52.4862 78.2 52.6862 77.4667 52.8195 76.8C52.9529 76 53.2862 75.2667 53.8195 74.6C54.3529 73.9333 54.6862 73.2 54.8195 72.4C54.9529 71.6 55.1529 70.8667 55.4195 70.2C55.8195 69.1333 56.1529 68.1333 56.4195 67.2C56.8195 66.2667 57.3529 65.3333 58.0195 64.4C58.0195 63.7333 58.0195 63.0667 58.0195 62.4C58.0195 61.6 58.0862 60.8667 58.2195 60.2C58.6195 58.8667 59.0195 57.6 59.4195 56.4C59.9529 55.2 60.4862 54 61.0195 52.8C61.4195 51.7333 61.7529 50.6 62.0195 49.4C62.4195 48.2 62.8195 47.0667 63.2195 46C63.3529 45.7333 63.4195 45.4667 63.4195 45.2C63.4195 44.9333 63.4862 44.6667 63.6195 44.4C64.5529 42.9333 65.2195 41.4 65.6195 39.8C66.1529 38.0667 66.7529 36.4 67.4195 34.8C67.5529 34.4 67.6195 34 67.6195 33.6C67.7529 33.0667 67.9529 32.6 68.2195 32.2C68.4862 31.5333 68.7529 30.9333 69.0195 30.4C69.2862 29.7333 69.6862 29.1333 70.2195 28.6C71.9529 28.3333 74.3529 28.2 77.4195 28.2C80.6195 28.2 84.3529 28.2667 88.6195 28.4C89.2862 28.5333 89.9529 29.0667 90.6195 30C90.7529 30.4 90.8862 30.8 91.0195 31.2C91.1529 31.4667 91.2862 31.7333 91.4195 32C91.6862 33.0667 92.0862 34.1333 92.6195 35.2C93.1529 36.1333 93.5529 37.2 93.8195 38.4C94.0862 39.4667 94.4862 40.5333 95.0195 41.6C95.5529 42.5333 95.9529 43.5333 96.2195 44.6C97.2862 46.6 98.0862 48.7333 98.6195 51C99.2862 53.1333 100.086 55.2667 101.02 57.4C101.153 58.4667 101.42 59.4 101.82 60.2C102.353 60.8667 102.753 61.6667 103.02 62.6C103.286 63.6667 103.553 64.6667 103.82 65.6C104.086 66.4 104.42 67.2667 104.82 68.2C105.62 69.6667 106.22 71.2667 106.62 73C107.153 74.6 107.753 76.2667 108.42 78C108.553 78.2667 108.62 78.5333 108.62 78.8C108.62 78.9333 108.686 79.1333 108.82 79.4C109.353 80.3333 109.753 81.2667 110.02 82.2C110.42 83 110.753 83.8667 111.02 84.8C111.42 85.7333 111.82 86.6 112.22 87.4C112.62 88.2 112.953 89.0667 113.22 90C113.486 90.6667 113.686 91.2667 113.82 91.8C114.086 92.2 114.353 92.6667 114.62 93.2ZM77.0195 62.8C76.6195 63.7333 76.2862 64.5333 76.0195 65.2C75.8862 65.8667 75.6862 66.5333 75.4195 67.2C75.1529 67.8667 75.0195 68.4667 75.0195 69C75.0195 69.5333 74.8862 70.1333 74.6195 70.8C74.3529 71.4667 74.1529 72.1333 74.0195 72.8C73.8862 73.4667 73.7529 74.1333 73.6195 74.8C73.2195 75.8667 72.6862 76.9333 72.0195 78C71.4862 79.2 71.9529 79.8 73.4195 79.8C73.6862 79.8 74.0195 79.8 74.4195 79.8C74.8195 79.6667 75.1529 79.6 75.4195 79.6C75.6862 79.4667 75.9529 79.3333 76.2195 79.2C76.6195 79.0667 77.0195 78.9333 77.4195 78.8H83.6195C83.8862 78.8 84.0862 78.7333 84.2195 78.6C84.4862 78.4667 84.7529 78.3333 85.0195 78.2C85.5529 76.7333 85.4862 75.2 84.8195 73.6C84.5529 72.8 84.2195 72 83.8195 71.2C83.5529 70.4 83.4195 69.5333 83.4195 68.6C83.4195 67.6667 83.2862 66.8 83.0195 66C82.7529 65.2 82.4862 64.4 82.2195 63.6C82.0862 63.0667 81.8862 62.6 81.6195 62.2C81.4862 61.6667 81.3529 61.1333 81.2195 60.6C81.2195 59.5333 81.0195 58.6 80.6195 57.8C80.2195 57 79.8862 56.1333 79.6195 55.2C79.4862 55.0667 79.3529 55 79.2195 55C79.0862 55 78.9529 54.9333 78.8195 54.8C78.4195 55.2 78.0862 55.6667 77.8195 56.2C77.5529 56.6 77.2862 57.0667 77.0195 57.6V62.8ZM104.82 133C105.086 133.267 105.22 133.533 105.22 133.8C105.353 134.867 105.42 135.867 105.42 136.8C105.553 137.867 105.486 138.933 105.22 140C105.086 140.133 104.953 140.2 104.82 140.2C104.553 139.133 104.353 138.333 104.22 137.8C104.22 137.4 104.286 136.067 104.42 133.8C104.42 133.533 104.486 133.333 104.62 133.2C104.753 133.2 104.82 133.133 104.82 133ZM43.4195 142.4C43.4195 143.467 43.3529 144.333 43.2195 145C43.2195 145.667 43.0195 145.8 42.6195 145.4C42.4862 145.133 42.4195 145 42.4195 145V139.8C42.4195 139.133 42.6195 139 43.0195 139.4C43.0195 139.533 43.0195 139.6 43.0195 139.6C43.1529 139.6 43.2195 139.667 43.2195 139.8C43.2195 140.2 43.2195 140.6 43.2195 141C43.3529 141.533 43.4195 142 43.4195 142.4ZM108.02 162.2C108.02 162.067 107.953 161.933 107.82 161.8C107.686 161.8 107.62 161.733 107.62 161.6C107.353 160.8 107.486 160.4 108.02 160.4C108.153 160.4 108.22 160.467 108.22 160.6C108.353 160.867 108.42 161.333 108.42 162C108.286 162.133 108.153 162.2 108.02 162.2Z" fill="#842D2C"/>
</svg>
