<svg width="28" height="24" viewBox="0 0 28 24" fill="none" xmlns="http://www.w3.org/2000/svg">
<path d="M16 0C19.3333 0 22.1667 1.16667 24.5 3.5C26.8333 5.83333 28 8.66667 28 12C28 15.3333 26.8333 18.1667 24.5 20.5C22.1667 22.8333 19.3333 24 16 24C13.2917 24 10.8542 23.1667 8.6875 21.5L10.5625 19.625C12.2292 20.75 14.0417 21.3125 16 21.3125C18.5833 21.3125 20.7812 20.4062 22.5938 18.5938C24.4062 16.7812 25.3125 14.5833 25.3125 12C25.3125 9.41667 24.4062 7.21875 22.5938 5.40625C20.7812 3.59375 18.5833 2.6875 16 2.6875C13.4167 2.6875 11.2188 3.59375 9.40625 5.40625C7.59375 7.21875 6.6875 9.41667 6.6875 12H10.6875L5.3125 17.3125L0 12H4C4 8.66667 5.16667 5.83333 7.5 3.5C9.83333 1.16667 12.6667 0 16 0Z" fill="white"/>
<path d="M13.0651 9.98589V8.95389H14.9931V14.7859H13.8411V9.98589H13.0651ZM16.0995 11.7939C16.0995 10.8712 16.2649 10.1486 16.5955 9.62589C16.9315 9.10322 17.4862 8.84189 18.2595 8.84189C19.0329 8.84189 19.5849 9.10322 19.9155 9.62589C20.2515 10.1486 20.4195 10.8712 20.4195 11.7939C20.4195 12.7219 20.2515 13.4499 19.9155 13.9779C19.5849 14.5059 19.0329 14.7699 18.2595 14.7699C17.4862 14.7699 16.9315 14.5059 16.5955 13.9779C16.2649 13.4499 16.0995 12.7219 16.0995 11.7939ZM19.3155 11.7939C19.3155 11.3992 19.2889 11.0686 19.2355 10.8019C19.1875 10.5299 19.0862 10.3086 18.9315 10.1379C18.7822 9.96722 18.5582 9.88189 18.2595 9.88189C17.9609 9.88189 17.7342 9.96722 17.5795 10.1379C17.4302 10.3086 17.3289 10.5299 17.2755 10.8019C17.2275 11.0686 17.2035 11.3992 17.2035 11.7939C17.2035 12.1992 17.2275 12.5406 17.2755 12.8179C17.3235 13.0899 17.4249 13.3112 17.5795 13.4819C17.7342 13.6472 17.9609 13.7299 18.2595 13.7299C18.5582 13.7299 18.7849 13.6472 18.9395 13.4819C19.0942 13.3112 19.1955 13.0899 19.2435 12.8179C19.2915 12.5406 19.3155 12.1992 19.3155 11.7939Z" fill="white"/>
</svg>
