<svg width="28" height="24" viewBox="0 0 28 24" fill="none" xmlns="http://www.w3.org/2000/svg">
<path d="M7.79093 10.1395V9.10745H9.71893V14.9395H8.56693V10.1395H7.79093ZM10.8254 11.9475C10.8254 11.0248 10.9907 10.3021 11.3214 9.77945C11.6574 9.25679 12.212 8.99545 12.9854 8.99545C13.7587 8.99545 14.3107 9.25679 14.6414 9.77945C14.9774 10.3021 15.1454 11.0248 15.1454 11.9475C15.1454 12.8755 14.9774 13.6035 14.6414 14.1315C14.3107 14.6595 13.7587 14.9235 12.9854 14.9235C12.212 14.9235 11.6574 14.6595 11.3214 14.1315C10.9907 13.6035 10.8254 12.8755 10.8254 11.9475ZM14.0414 11.9475C14.0414 11.5528 14.0147 11.2221 13.9614 10.9555C13.9134 10.6835 13.812 10.4621 13.6574 10.2915C13.508 10.1208 13.284 10.0355 12.9854 10.0355C12.6867 10.0355 12.46 10.1208 12.3054 10.2915C12.156 10.4621 12.0547 10.6835 12.0014 10.9555C11.9534 11.2221 11.9294 11.5528 11.9294 11.9475C11.9294 12.3528 11.9534 12.6941 12.0014 12.9715C12.0494 13.2435 12.1507 13.4648 12.3054 13.6355C12.46 13.8008 12.6867 13.8835 12.9854 13.8835C13.284 13.8835 13.5107 13.8008 13.6654 13.6355C13.82 13.4648 13.9214 13.2435 13.9694 12.9715C14.0174 12.6941 14.0414 12.3528 14.0414 11.9475Z" fill="white"/>
<path d="M12 0C8.66667 0 5.83333 1.16667 3.5 3.5C1.16667 5.83333 0 8.66667 0 12C0 15.3333 1.16667 18.1667 3.5 20.5C5.83333 22.8333 8.66667 24 12 24C14.7083 24 17.1458 23.1667 19.3125 21.5L17.4375 19.625C15.7708 20.75 13.9583 21.3125 12 21.3125C9.41667 21.3125 7.21875 20.4062 5.40625 18.5938C3.59375 16.7812 2.6875 14.5833 2.6875 12C2.6875 9.41667 3.59375 7.21875 5.40625 5.40625C7.21875 3.59375 9.41667 2.6875 12 2.6875C14.5833 2.6875 16.7812 3.59375 18.5938 5.40625C20.4062 7.21875 21.3125 9.41667 21.3125 12H17.3125L22.6875 17.3125L28 12H24C24 8.66667 22.8333 5.83333 20.5 3.5C18.1667 1.16667 15.3333 0 12 0Z" fill="white"/>
</svg>
