<svg width="48" height="48" viewBox="0 0 48 48" fill="none" xmlns="http://www.w3.org/2000/svg">
<circle cx="24" cy="24" r="22" fill="white" stroke="#842D2C" stroke-width="4"/>
<path d="M20.707 31.2926L30 21.9996L25.586 17.5856L16.293 26.8786C16.1651 27.0067 16.0742 27.167 16.03 27.3426L15 32.5856L20.242 31.5556C20.418 31.5116 20.579 31.4206 20.707 31.2926ZM33 18.9996C33.3749 18.6245 33.5856 18.1159 33.5856 17.5856C33.5856 17.0552 33.3749 16.5466 33 16.1716L31.414 14.5856C31.0389 14.2106 30.5303 14 30 14C29.4697 14 28.9611 14.2106 28.586 14.5856L27 16.1716L31.414 20.5856L33 18.9996Z" fill="black"/>
</svg>
