<svg width="23" height="23" viewBox="0 0 23 23" fill="none" xmlns="http://www.w3.org/2000/svg">
<path d="M17.25 7.66675C18.8378 7.66675 20.125 6.37957 20.125 4.79175C20.125 3.20393 18.8378 1.91675 17.25 1.91675C15.6622 1.91675 14.375 3.20393 14.375 4.79175C14.375 6.37957 15.6622 7.66675 17.25 7.66675Z" stroke="white" stroke-width="2" stroke-linecap="round" stroke-linejoin="round"/>
<path d="M5.75 14.375C7.33782 14.375 8.625 13.0878 8.625 11.5C8.625 9.91218 7.33782 8.625 5.75 8.625C4.16218 8.625 2.875 9.91218 2.875 11.5C2.875 13.0878 4.16218 14.375 5.75 14.375Z" stroke="white" stroke-width="2" stroke-linecap="round" stroke-linejoin="round"/>
<path d="M17.25 21.0833C18.8378 21.0833 20.125 19.7961 20.125 18.2083C20.125 16.6204 18.8378 15.3333 17.25 15.3333C15.6622 15.3333 14.375 16.6204 14.375 18.2083C14.375 19.7961 15.6622 21.0833 17.25 21.0833Z" stroke="white" stroke-width="2" stroke-linecap="round" stroke-linejoin="round"/>
<path d="M8.23242 12.947L14.7778 16.7612" stroke="white" stroke-width="2" stroke-linecap="round" stroke-linejoin="round"/>
<path d="M14.7683 6.23877L8.23242 10.0529" stroke="white" stroke-width="2" stroke-linecap="round" stroke-linejoin="round"/>
</svg>
