<svg width="34" height="32" viewBox="0 0 34 32" fill="none" xmlns="http://www.w3.org/2000/svg">
<path d="M21.9774 27.8157V3.83266C21.9774 0.410588 17.8276 -1.28945 15.4268 1.14919L3.62098 13.1407C2.15531 14.6295 2.15531 17.0189 3.62098 18.5077L15.4267 30.4991C17.8276 32.9378 21.9774 31.2377 21.9774 27.8157Z" fill="white"/>
<path d="M9.25837 24.2818H2.24695C1.01113 24.2818 0 23.2706 0 22.0348V9.61371C0 8.37789 1.01113 7.36676 2.24695 7.36676H9.25845V24.2818H9.25837Z" fill="white"/>
<path d="M27.8562 25.0867C27.5179 25.0867 27.1868 24.9189 26.9921 24.6121C26.6895 24.1354 26.8306 23.5037 27.3073 23.201C29.3267 21.9192 30.7681 19.7302 31.1632 17.3457C31.7086 14.0541 30.1726 10.6155 27.3409 8.78924C26.8664 8.48317 26.7299 7.85052 27.0359 7.376C27.3419 6.90141 27.9745 6.76473 28.4493 7.07095C31.9558 9.33249 33.8571 13.5959 33.1804 17.6798C32.6917 20.6292 30.9059 23.3386 28.4032 24.9273C28.2398 25.0314 28.05 25.0867 27.8562 25.0867Z" fill="white"/>
</svg>
